<?xml version="1.0" encoding="utf-8"?>
<!-- Generator: Adobe Illustrator 16.0.0, SVG Export Plug-In . SVG Version: 6.00 Build 0)  -->
<!DOCTYPE svg PUBLIC "-//W3C//DTD SVG 1.1//EN" "http://www.w3.org/Graphics/SVG/1.1/DTD/svg11.dtd">
<svg version="1.1" id="Layer_1" xmlns="http://www.w3.org/2000/svg" xmlns:xlink="http://www.w3.org/1999/xlink" x="0px" y="0px"
	 width="356.782px" height="105.156px" viewBox="0 0 356.782 105.156" enable-background="new 0 0 356.782 105.156"
	 xml:space="preserve">
<g>
	<path fill="#F1B800" d="M78.96,0c-4.751,0.964-9.441,1.909-13.993,2.821c-4.489,0.899-8.912,1.788-13.242,2.658
		c-0.781,5.073-1.54,9.946-2.266,14.642c-0.726,4.693-1.414,9.21-2.075,13.537c-1.227,8.024-2.356,15.525-3.401,22.48
		c-4.167,0.418-8.271,0.841-12.288,1.239c-3.937,0.39-7.827,0.768-11.637,1.15c0.216-6.527,0.444-13.534,0.707-21.02
		c0.142-4.009,0.294-8.184,0.444-12.526c0.149-4.321,0.322-8.831,0.496-13.497c-3.768,0.755-7.474,1.497-11.119,2.229
		C7.013,14.432,3.475,15.142,0,15.839c0.584,10.642,1.138,20.455,1.64,29.489c0.503,9.076,0.975,17.387,1.414,25
		c0.376,6.523,0.732,12.643,1.06,18.346c0.33,5.725,0.66,11.077,0.954,16.054c2.224,0,4.457,0,6.722,0c2.282,0,4.595,0,6.935,0
		c0.106-4.017,0.213-8.294,0.34-12.789c0.135-4.756,0.282-9.805,0.444-15.154c3.445-0.218,6.954-0.417,10.526-0.635
		c3.621-0.219,7.322-0.448,11.071-0.679c-0.836,5.645-1.625,10.924-2.352,15.921c-0.686,4.713-1.335,9.156-1.949,13.336
		c2.544,0,5.12,0,7.712,0c2.617,0,5.275,0,7.973,0c1.404-5.545,2.922-11.554,4.554-18.042c1.627-6.472,3.398-13.437,5.292-20.938
		c2.259-8.939,4.756-18.805,7.522-29.755C72.607,25.108,75.626,13.168,78.96,0L78.96,0z M98.433,25.573H83.991L70.78,74.792h11.527
		l2.72-11.462h11.527l2.915,11.462h11.786L98.433,25.573L98.433,25.573z M86.387,54.863l2.267-9.869
		c0.151-0.712,0.302-1.497,0.475-2.378c0.172-0.87,0.356-1.772,0.539-2.706c0.184-0.944,0.367-1.857,0.54-2.748
		c0.183-0.902,0.356-1.73,0.518-2.483h0.13c0.162,0.753,0.334,1.571,0.518,2.461c0.183,0.881,0.367,1.794,0.55,2.717
		c0.184,0.923,0.367,1.836,0.551,2.706c0.183,0.881,0.356,1.688,0.518,2.431l2.201,9.869H86.387L86.387,54.863z M145.319,65.305
		H128.74V25.573h-11.398v49.22h27.977V65.305L145.319,65.305z M179.512,65.305h-16.579V25.573h-11.398v49.22h27.977V65.305
		L179.512,65.305z M214.158,65.433h-17.032V53.971h15.219v-9.169h-15.219v-9.869h16.061v-9.36h-27.458v49.22h28.429V65.433
		L214.158,65.433z M98.433,25.573H83.991L70.78,74.792h11.527l2.72-11.462h11.527l2.915,11.462h11.786L98.433,25.573L98.433,25.573z
		 M86.387,54.863l2.267-9.869c0.151-0.712,0.302-1.497,0.475-2.378c0.172-0.87,0.356-1.772,0.539-2.706
		c0.184-0.944,0.367-1.857,0.54-2.748c0.183-0.902,0.356-1.73,0.518-2.483h0.13c0.162,0.753,0.334,1.571,0.518,2.461
		c0.183,0.881,0.367,1.794,0.55,2.717c0.184,0.923,0.367,1.836,0.551,2.706c0.183,0.881,0.356,1.688,0.518,2.431l2.201,9.869H86.387
		L86.387,54.863z M145.319,65.305H128.74V25.573h-11.398v49.22h27.977V65.305L145.319,65.305z M179.512,65.305h-16.579V25.573
		h-11.398v49.22h27.977V65.305L179.512,65.305z M214.158,65.433h-17.032V53.971h15.219v-9.169h-15.219v-9.869h16.061v-9.36h-27.458
		v49.22h28.429V65.433L214.158,65.433z"/>
	<path fill="#9D9D9C" d="M88.375,102.89v1.879H70.842v-1.444l0.073-0.109l14.534-21.832H72.091v-1.88h16.092v1.412L73.491,102.89
		H88.375L88.375,102.89z M105.156,94.688c0,0.12,0,0.227-0.006,0.319c0.001,0.084-0.01,0.19-0.034,0.312l-0.071,0.354H92.222
		c0.036,1.562,0.29,2.908,0.756,4.006c0.5,1.182,1.227,2.089,2.162,2.696c0.941,0.614,2.105,0.929,3.461,0.934
		c0.824-0.005,1.527-0.063,2.085-0.174c0.56-0.111,1.046-0.248,1.444-0.407c0.394-0.158,0.744-0.314,1.041-0.467l0.415-0.213
		l0.721,1.634l-0.306,0.206c-0.182,0.122-0.475,0.263-0.98,0.472c-0.455,0.188-1.057,0.357-1.84,0.52
		c-0.748,0.152-1.643,0.233-2.737,0.245h-0.003h-0.004c-1.263-0.005-2.414-0.237-3.423-0.689c-1.013-0.448-1.893-1.092-2.611-1.912
		c-0.71-0.804-1.265-1.777-1.649-2.894c-0.372-1.097-0.563-2.313-0.569-3.62c0.006-1.545,0.213-2.936,0.616-4.136
		c0.396-1.197,0.966-2.235,1.695-3.082c0.728-0.843,1.588-1.488,2.556-1.921c0.973-0.437,2.027-0.657,3.131-0.657
		c1.07,0.006,2.015,0.184,2.812,0.531c0.796,0.346,1.473,0.823,2.014,1.42c0.529,0.579,0.96,1.248,1.279,1.985
		c0.311,0.723,0.536,1.483,0.67,2.262C105.095,93.179,105.162,93.945,105.156,94.688L105.156,94.688z M96.085,88.378
		c-0.587,0.256-1.099,0.597-1.522,1.013c-0.456,0.449-0.825,0.929-1.126,1.466c-0.309,0.553-0.555,1.127-0.731,1.708
		c-0.127,0.41-0.226,0.821-0.295,1.229h10.611c-0.01-0.195-0.03-0.418-0.061-0.675c-0.051-0.434-0.145-0.89-0.279-1.354
		c-0.14-0.485-0.326-0.938-0.568-1.386c-0.231-0.438-0.536-0.843-0.908-1.207c-0.363-0.355-0.803-0.642-1.31-0.849
		c-0.513-0.212-1.132-0.321-1.841-0.326C97.319,88.001,96.656,88.13,96.085,88.378L96.085,88.378z M122.439,90.963
		c-0.242-0.86-0.554-1.558-0.953-2.13c-0.394-0.57-0.837-1.039-1.322-1.398c-0.491-0.353-0.961-0.612-1.442-0.793
		c-0.5-0.18-0.93-0.294-1.314-0.349c-0.376-0.055-0.674-0.081-0.911-0.081l-0.062,0.001c-0.933,0.006-1.811,0.164-2.609,0.47
		c-0.814,0.309-1.55,0.757-2.186,1.329c-0.319,0.285-0.615,0.601-0.886,0.946l-0.07-2.358h-1.99l0.035,0.472
		c0.037,0.49,0.06,0.89,0.074,1.261c0.022,0.403,0.032,0.819,0.043,1.239c0.005,0.424,0.01,0.885,0.01,1.371v13.826h2.001V93.522
		c0-0.496,0.082-0.988,0.251-1.511c0.164-0.514,0.398-0.999,0.716-1.481c0.315-0.474,0.695-0.9,1.13-1.269
		c0.429-0.364,0.912-0.652,1.472-0.877c0.546-0.214,1.122-0.32,1.753-0.325c0.865,0.005,1.598,0.168,2.179,0.485
		c0.583,0.314,1.056,0.745,1.404,1.276c0.366,0.565,0.634,1.209,0.795,1.913c0.168,0.728,0.25,1.501,0.245,2.306v10.729h2V93.94
		C122.797,92.801,122.674,91.799,122.439,90.963L122.439,90.963z M135.517,88.479V86.6h-5.06v-3.924l-2.001,0.921V86.6h-2.979v1.88
		h2.979v11.07c-0.005,0.396,0.012,0.826,0.055,1.356c0.046,0.504,0.14,0.993,0.278,1.456c0.15,0.508,0.376,0.967,0.672,1.364
		c0.315,0.423,0.74,0.764,1.262,1.015c0.516,0.248,1.16,0.377,1.916,0.383h0.005h0.004c0.548-0.006,0.994-0.051,1.362-0.135
		c0.401-0.091,0.735-0.195,1.021-0.322l0.356-0.158l-0.513-1.678l-0.449,0.189c-0.159,0.068-0.383,0.132-0.683,0.196
		c-0.266,0.056-0.616,0.087-1.031,0.092c-0.52-0.004-0.927-0.135-1.247-0.399c-0.336-0.276-0.581-0.65-0.747-1.142
		c-0.173-0.528-0.26-1.142-0.26-1.825V88.479H135.517L135.517,88.479z M145.799,86.327c-0.146-0.043-0.264-0.07-0.373-0.088
		c-0.116-0.019-0.24-0.026-0.393-0.026c-0.669,0.006-1.294,0.128-1.852,0.358c-0.565,0.228-1.068,0.537-1.538,0.951
		c-0.444,0.396-0.833,0.858-1.157,1.372c-0.012,0.02-0.024,0.038-0.036,0.058l-0.041-2.353h-1.955l0.027,0.465
		c0.045,0.8,0.078,1.642,0.101,2.569c0.018,0.984,0.026,1.779,0.026,2.502v12.633h2.001V94.654c0.005-0.932,0.118-1.809,0.336-2.604
		c0.219-0.788,0.532-1.491,0.929-2.087c0.394-0.587,0.857-1.044,1.374-1.36c0.513-0.313,1.084-0.474,1.693-0.478
		c0.132,0,0.228,0.005,0.323,0.019c0.065,0.006,0.135,0.016,0.211,0.024l0.642,0.075v-1.824L145.799,86.327L145.799,86.327z
		 M162.481,104.298c-0.045-0.612-0.077-1.248-0.1-1.942c-0.018-0.729-0.027-1.392-0.027-2.025V86.6h-2v11.179
		c-0.005,0.748-0.15,1.439-0.444,2.111s-0.685,1.256-1.193,1.783c-0.507,0.521-1.08,0.932-1.703,1.221
		c-0.619,0.292-1.277,0.442-1.951,0.447c-1.029-0.005-1.85-0.254-2.508-0.762c-0.658-0.512-1.154-1.257-1.476-2.215
		c-0.339-0.992-0.51-2.209-0.51-3.615V86.6h-2.001v10.507c0.011,1.375,0.159,2.55,0.44,3.494c0.286,0.955,0.677,1.748,1.161,2.357
		c0.479,0.604,1.013,1.073,1.585,1.394c0.561,0.318,1.128,0.535,1.679,0.646c0.507,0.105,0.979,0.159,1.406,0.159l0.065-0.001
		c0.811-0.005,1.565-0.118,2.244-0.339c0.673-0.224,1.277-0.521,1.797-0.886c0.518-0.368,0.968-0.777,1.337-1.216
		c0.065-0.078,0.128-0.156,0.189-0.234l0.092,2.288h1.952L162.481,104.298L162.481,104.298z M191.334,91.119
		c-0.225-0.878-0.507-1.584-0.864-2.167c-0.378-0.607-0.775-1.078-1.215-1.44s-0.892-0.641-1.34-0.829
		c-0.432-0.184-0.857-0.311-1.259-0.377c-0.348-0.062-0.658-0.094-0.918-0.094l-0.064,0.001c-0.78,0.006-1.493,0.102-2.121,0.288
		c-0.628,0.19-1.182,0.444-1.645,0.751c-0.474,0.311-0.872,0.647-1.215,1.028c-0.341,0.372-0.625,0.747-0.841,1.11
		c-0.038,0.063-0.075,0.125-0.111,0.188c-0.212-0.455-0.473-0.883-0.781-1.274c-0.5-0.63-1.116-1.139-1.833-1.515
		c-0.725-0.376-1.532-0.57-2.405-0.576c-0.982,0.006-1.867,0.167-2.632,0.479c-0.762,0.317-1.433,0.771-1.992,1.346
		c-0.251,0.255-0.487,0.532-0.707,0.83l-0.068-2.269h-1.989l0.035,0.472c0.036,0.49,0.059,0.889,0.074,1.26
		c0.021,0.404,0.031,0.82,0.042,1.24c0.005,0.424,0.01,0.885,0.01,1.371v13.826h2.001V93.62c0-0.494,0.083-1.012,0.246-1.534
		c0.167-0.528,0.404-1.038,0.705-1.517c0.305-0.482,0.672-0.916,1.094-1.291c0.407-0.371,0.869-0.671,1.375-0.89
		c0.484-0.213,1.018-0.324,1.581-0.329c0.662,0.005,1.25,0.139,1.746,0.396c0.501,0.264,0.926,0.635,1.263,1.104
		c0.347,0.482,0.616,1.055,0.798,1.697c0.183,0.673,0.272,1.383,0.272,2.17v11.342h2.001V93.14c0.005-0.616,0.13-1.209,0.383-1.815
		c0.242-0.591,0.593-1.145,1.042-1.647c0.433-0.485,0.945-0.88,1.521-1.175c0.567-0.288,1.175-0.438,1.8-0.442
		c0.979,0.005,1.765,0.242,2.399,0.722c0.644,0.491,1.114,1.175,1.437,2.087c0.33,0.942,0.498,2.086,0.498,3.396v10.504h2.001
		V94.134C191.652,92.969,191.543,91.955,191.334,91.119L191.334,91.119z M212.735,78.583c-0.274-0.192-0.651-0.363-1.16-0.523
		c-0.493-0.15-1.037-0.228-1.618-0.234h-0.047c-0.699,0-1.394,0.129-2.061,0.383c-0.692,0.26-1.319,0.676-1.862,1.233
		c-0.732,0.749-1.257,1.697-1.557,2.817c-0.294,1.094-0.437,2.367-0.426,3.781v0.56h-2.53v1.88h2.53v16.289h2V88.479h4.771V86.6
		h-4.771v-0.563c-0.005-0.542,0.027-1.123,0.094-1.73c0.06-0.575,0.175-1.165,0.343-1.753c0.157-0.55,0.386-1.056,0.68-1.507
		c0.272-0.427,0.629-0.771,1.058-1.02c0.437-0.255,0.954-0.381,1.577-0.386c0.493,0.005,0.889,0.058,1.187,0.161
		c0.301,0.098,0.569,0.218,0.803,0.357l0.373,0.224l0.956-1.563L212.735,78.583L212.735,78.583z M221.799,83.478
		c0.239,0.187,0.539,0.284,0.891,0.292h0.012h0.012c0.482-0.015,0.875-0.183,1.168-0.501c0.287-0.31,0.436-0.7,0.443-1.172
		c-0.008-0.457-0.161-0.848-0.453-1.156c-0.293-0.318-0.672-0.486-1.151-0.502c-0.305,0.008-0.579,0.09-0.808,0.241
		c-0.228,0.146-0.411,0.341-0.566,0.609c-0.132,0.245-0.2,0.508-0.208,0.814c0,0.247,0.054,0.495,0.158,0.732
		C221.407,83.095,221.578,83.313,221.799,83.478L221.799,83.478z M215.954,83.474c0.234,0.189,0.528,0.288,0.875,0.296h0.008h0.008
		c0.489-0.007,0.893-0.17,1.195-0.482c0.291-0.301,0.448-0.707,0.455-1.189c-0.007-0.457-0.155-0.847-0.438-1.153
		c-0.289-0.32-0.673-0.49-1.166-0.506c-0.295,0.008-0.555,0.087-0.802,0.245c-0.225,0.148-0.411,0.347-0.557,0.596
		c-0.143,0.252-0.216,0.519-0.223,0.824c0,0.255,0.053,0.502,0.152,0.732C215.571,83.091,215.739,83.308,215.954,83.474
		L215.954,83.474z M226.757,104.298c-0.045-0.612-0.078-1.248-0.101-1.942c-0.019-0.729-0.026-1.392-0.026-2.025V86.6h-2.001v11.179
		c-0.004,0.748-0.15,1.439-0.443,2.111c-0.295,0.673-0.685,1.257-1.193,1.783c-0.507,0.521-1.079,0.931-1.703,1.221
		c-0.618,0.292-1.276,0.442-1.95,0.447c-1.03-0.005-1.851-0.254-2.508-0.762c-0.658-0.513-1.155-1.257-1.477-2.215
		c-0.339-0.991-0.511-2.209-0.511-3.615V86.6h-2v10.507c0.011,1.375,0.159,2.55,0.44,3.494c0.286,0.954,0.676,1.747,1.16,2.357
		c0.479,0.604,1.014,1.073,1.586,1.394c0.561,0.318,1.128,0.535,1.679,0.646c0.506,0.105,0.979,0.159,1.405,0.159l0.064-0.001
		c0.813-0.005,1.566-0.118,2.245-0.339c0.672-0.224,1.276-0.521,1.796-0.886c0.52-0.368,0.969-0.777,1.337-1.216
		c0.065-0.078,0.128-0.156,0.189-0.234l0.093,2.288h1.952L226.757,104.298L226.757,104.298z M238.962,86.327
		c-0.146-0.043-0.264-0.07-0.373-0.088c-0.116-0.019-0.24-0.026-0.393-0.026c-0.67,0.006-1.295,0.128-1.853,0.358
		c-0.564,0.228-1.068,0.537-1.538,0.951c-0.443,0.396-0.833,0.857-1.157,1.372c-0.012,0.02-0.023,0.038-0.035,0.058l-0.041-2.353
		h-1.955l0.026,0.465c0.045,0.8,0.078,1.642,0.101,2.569c0.019,0.984,0.026,1.779,0.026,2.502v12.633h2V94.654
		c0.006-0.933,0.119-1.81,0.337-2.604c0.22-0.789,0.532-1.491,0.929-2.087c0.395-0.587,0.857-1.044,1.375-1.36
		c0.513-0.313,1.084-0.474,1.692-0.478c0.132,0,0.229,0.005,0.323,0.019c0.064,0.006,0.134,0.016,0.21,0.024l0.644,0.075v-1.825
		L238.962,86.327L238.962,86.327z M254.684,90.399l9.837-10.896h-2.53l-9.226,10.316l-0.398,0.438
		c-0.209,0.229-0.422,0.463-0.638,0.703c-0.141,0.157-0.287,0.325-0.438,0.504V79.503h-2.001v25.266h2.001V94.064l2.053-2.252
		l9.518,12.956h2.508L254.684,90.399L254.684,90.399z M273.678,86.327c-0.146-0.043-0.265-0.07-0.374-0.088
		c-0.115-0.019-0.239-0.026-0.392-0.026c-0.67,0.006-1.294,0.128-1.853,0.358c-0.565,0.228-1.067,0.537-1.538,0.951
		c-0.443,0.396-0.833,0.857-1.156,1.372c-0.013,0.02-0.024,0.038-0.036,0.058l-0.042-2.353h-1.954l0.025,0.465
		c0.047,0.8,0.079,1.642,0.102,2.569c0.018,0.984,0.027,1.779,0.027,2.502v12.633h2.001V94.654c0.005-0.932,0.117-1.809,0.336-2.604
		c0.219-0.788,0.531-1.491,0.928-2.087c0.395-0.587,0.857-1.044,1.375-1.36c0.513-0.313,1.084-0.474,1.691-0.478
		c0.133,0,0.229,0.005,0.324,0.019c0.064,0.006,0.134,0.016,0.21,0.024l0.644,0.075v-1.825L273.678,86.327L273.678,86.327z
		 M290.073,94.688c0,0.12-0.001,0.226-0.007,0.319c0,0.083-0.011,0.19-0.034,0.312l-0.07,0.354h-12.824
		c0.036,1.562,0.29,2.908,0.757,4.006c0.499,1.182,1.227,2.089,2.161,2.696c0.941,0.614,2.106,0.929,3.461,0.934
		c0.824-0.005,1.527-0.063,2.086-0.174c0.561-0.111,1.045-0.248,1.443-0.407c0.394-0.158,0.745-0.314,1.041-0.467l0.415-0.213
		l0.721,1.634l-0.306,0.206c-0.182,0.123-0.476,0.264-0.979,0.472c-0.455,0.188-1.057,0.357-1.841,0.52
		c-0.747,0.152-1.642,0.233-2.735,0.245h-0.005h-0.003c-1.263-0.005-2.415-0.237-3.423-0.689c-1.014-0.448-1.894-1.092-2.612-1.912
		c-0.709-0.804-1.264-1.777-1.648-2.894c-0.372-1.097-0.563-2.313-0.568-3.62c0.005-1.545,0.212-2.937,0.615-4.136
		c0.396-1.197,0.967-2.234,1.695-3.082c0.729-0.843,1.589-1.488,2.556-1.921c0.973-0.437,2.027-0.657,3.132-0.657
		c1.069,0.006,2.015,0.184,2.813,0.531c0.795,0.346,1.473,0.823,2.013,1.42c0.529,0.577,0.96,1.247,1.279,1.985
		c0.311,0.723,0.537,1.482,0.67,2.262C290.011,93.18,290.078,93.946,290.073,94.688L290.073,94.688z M281.001,88.378
		c-0.587,0.256-1.1,0.597-1.521,1.013c-0.457,0.449-0.824,0.929-1.126,1.466c-0.31,0.554-0.556,1.127-0.73,1.708
		c-0.128,0.41-0.227,0.821-0.295,1.229h10.609c-0.01-0.197-0.029-0.421-0.06-0.675c-0.051-0.434-0.146-0.89-0.28-1.355
		c-0.139-0.483-0.325-0.938-0.566-1.385c-0.232-0.438-0.537-0.843-0.908-1.207c-0.363-0.355-0.804-0.642-1.312-0.849
		c-0.513-0.212-1.131-0.321-1.841-0.326C282.234,88.001,281.573,88.13,281.001,88.378L281.001,88.378z M305.07,104.769h-1.97
		l-0.191-1.956c-0.069,0.077-0.143,0.156-0.219,0.236c-0.354,0.367-0.786,0.715-1.286,1.033c-0.496,0.317-1.05,0.569-1.691,0.77
		c-0.638,0.196-1.334,0.299-2.07,0.304h-0.003h-0.003c-0.912-0.005-1.721-0.155-2.407-0.448c-0.684-0.294-1.254-0.693-1.696-1.187
		c-0.435-0.483-0.766-1.033-0.983-1.632c-0.209-0.598-0.313-1.208-0.313-1.817c0-1.409,0.417-2.639,1.239-3.653
		c0.815-1.009,2.056-1.788,3.688-2.313c1.492-0.48,3.368-0.727,5.577-0.732c-0.005-0.295-0.018-0.606-0.037-0.93
		c-0.029-0.501-0.112-1.023-0.244-1.556c-0.134-0.516-0.344-0.976-0.64-1.404c-0.284-0.418-0.687-0.758-1.195-1.012
		c-0.532-0.268-1.225-0.406-2.06-0.411c-0.677,0-1.364,0.112-2.044,0.333c-0.688,0.224-1.336,0.55-1.924,0.972l-0.407,0.292
		l-0.869-1.625l0.32-0.224c0.555-0.387,1.141-0.705,1.743-0.945c0.599-0.233,1.183-0.402,1.739-0.503
		c0.538-0.098,1.056-0.146,1.541-0.146c1.018,0.006,1.896,0.158,2.611,0.452c0.717,0.294,1.317,0.704,1.786,1.218
		c0.463,0.514,0.818,1.09,1.058,1.715c0.235,0.597,0.402,1.241,0.495,1.909c0.089,0.654,0.132,1.29,0.126,1.891v6.835
		c-0.006,0.645,0.009,1.304,0.043,2.018c0.028,0.626,0.1,1.304,0.208,2.013L305.07,104.769L305.07,104.769z M302.628,95.246
		c-0.405,0-0.843,0.013-1.302,0.038c-0.613,0.03-1.268,0.103-2.005,0.222c-0.681,0.115-1.313,0.279-1.935,0.501
		c-0.592,0.207-1.136,0.492-1.622,0.849c-0.466,0.342-0.822,0.75-1.091,1.247c-0.268,0.502-0.401,1.084-0.406,1.778
		c0.005,0.6,0.102,1.13,0.286,1.567c0.179,0.423,0.427,0.779,0.735,1.063c0.314,0.279,0.67,0.49,1.05,0.624
		c0.388,0.137,0.805,0.206,1.236,0.206c0.749-0.005,1.416-0.118,1.981-0.336c0.573-0.213,1.046-0.488,1.45-0.84
		c0.408-0.355,0.737-0.731,0.979-1.117c0.259-0.415,0.44-0.794,0.556-1.162c0.11-0.349,0.167-0.655,0.167-0.911v-3.729
		C302.681,95.246,302.655,95.246,302.628,95.246L302.628,95.246z M317.39,88.479V86.6h-5.06v-3.924l-2,0.921V86.6h-2.979v1.88h2.979
		v11.07c-0.005,0.397,0.013,0.828,0.055,1.356c0.046,0.504,0.14,0.993,0.278,1.456c0.149,0.508,0.376,0.967,0.672,1.364
		c0.314,0.423,0.74,0.764,1.262,1.015c0.517,0.248,1.16,0.377,1.917,0.383h0.003h0.005c0.549-0.006,0.994-0.051,1.362-0.135
		c0.401-0.091,0.735-0.195,1.021-0.322l0.355-0.158l-0.513-1.678l-0.449,0.189c-0.159,0.068-0.383,0.132-0.683,0.196
		c-0.267,0.056-0.616,0.087-1.031,0.092c-0.521-0.004-0.927-0.135-1.247-0.399c-0.336-0.276-0.581-0.65-0.746-1.142
		c-0.174-0.528-0.262-1.142-0.262-1.825V88.479H317.39L317.39,88.479z M320.481,86.6v18.169h2.001V86.6H320.481L320.481,86.6z
		 M322.875,81.227c-0.134-0.27-0.318-0.482-0.534-0.625c-0.24-0.173-0.524-0.26-0.852-0.26c-0.001,0-0.001,0-0.001,0
		c-0.317,0.008-0.599,0.096-0.839,0.261c-0.23,0.16-0.421,0.381-0.549,0.639c-0.13,0.262-0.194,0.541-0.194,0.83
		c0,0.298,0.063,0.576,0.185,0.822c0.123,0.26,0.301,0.477,0.533,0.644c0.233,0.168,0.514,0.257,0.832,0.265h0.009h0.009
		c0.462-0.007,0.859-0.18,1.144-0.496c0.287-0.31,0.435-0.723,0.441-1.234C323.059,81.771,322.998,81.488,322.875,81.227
		L322.875,81.227z M338.812,86.6l-4.46,11.462c-0.353,0.835-0.68,1.628-0.983,2.381c-0.159,0.391-0.312,0.775-0.455,1.151
		c-0.048-0.135-0.098-0.269-0.146-0.399c-0.183-0.48-0.382-0.979-0.591-1.493c-0.101-0.247-0.204-0.503-0.31-0.766
		c-0.114-0.282-0.231-0.572-0.35-0.858L327.149,86.6h-2.296l7.203,18.169h1.556l7.403-18.169H338.812L338.812,86.6z M356.782,94.688
		c0,0.12,0,0.227-0.007,0.32c0.001,0.083-0.01,0.19-0.033,0.311l-0.071,0.354h-12.823c0.036,1.562,0.289,2.908,0.756,4.006
		c0.499,1.182,1.228,2.089,2.162,2.696c0.941,0.614,2.105,0.929,3.461,0.934c0.824-0.005,1.527-0.063,2.086-0.174
		c0.56-0.111,1.045-0.248,1.443-0.407c0.394-0.158,0.744-0.314,1.041-0.467l0.415-0.213l0.721,1.634l-0.306,0.206
		c-0.182,0.123-0.476,0.264-0.979,0.472c-0.455,0.188-1.058,0.357-1.841,0.52c-0.747,0.152-1.643,0.233-2.736,0.245h-0.004h-0.004
		c-1.262-0.005-2.414-0.237-3.423-0.689c-1.013-0.448-1.893-1.092-2.61-1.912c-0.709-0.804-1.266-1.777-1.649-2.894
		c-0.372-1.097-0.563-2.313-0.569-3.62c0.006-1.545,0.213-2.937,0.616-4.136c0.396-1.197,0.966-2.234,1.695-3.082
		c0.728-0.843,1.588-1.488,2.556-1.921c0.973-0.437,2.027-0.657,3.131-0.657c1.07,0.006,2.016,0.184,2.813,0.531
		c0.795,0.346,1.473,0.823,2.013,1.42c0.529,0.577,0.96,1.247,1.279,1.985c0.311,0.723,0.536,1.482,0.67,2.262
		C356.721,93.178,356.788,93.944,356.782,94.688L356.782,94.688z M347.711,88.378c-0.587,0.256-1.099,0.597-1.522,1.013
		c-0.456,0.449-0.823,0.929-1.126,1.466c-0.31,0.554-0.555,1.127-0.73,1.708c-0.127,0.41-0.227,0.821-0.295,1.229h10.61
		c-0.011-0.197-0.03-0.421-0.061-0.675c-0.051-0.434-0.146-0.89-0.279-1.355c-0.139-0.483-0.325-0.938-0.567-1.385
		c-0.231-0.438-0.536-0.843-0.908-1.207c-0.362-0.355-0.803-0.642-1.311-0.849c-0.513-0.212-1.132-0.321-1.841-0.326
		C348.945,88.001,348.282,88.13,347.711,88.378L347.711,88.378z"/>
	<path fill="#9D9D9C" d="M227.15,58.613h15.114c0,2.641,0.026,4.302,0.103,4.995c0.076,0.681,0.383,1.267,0.919,1.733
		c0.536,0.466,1.264,0.693,2.183,0.693c0.779,0,1.417-0.215,1.915-0.657c0.498-0.442,0.778-1.016,0.842-1.721
		c0.064-0.693,0.09-2.115,0.09-4.23v-9.034c-0.74,1.518-1.863,2.653-3.369,3.406c-1.494,0.764-3.346,1.147-5.566,1.147
		c-2.77,0-5.208-0.705-7.327-2.103s-3.472-3.083-4.047-5.043c-0.574-1.96-0.855-4.613-0.855-7.946v-4.517
		c0-3.967,0.166-6.919,0.498-8.855c0.345-1.936,1.213-3.728,2.604-5.377c1.391-1.649,3.332-2.928,5.795-3.836
		c2.477-0.908,5.336-1.362,8.604-1.362c4.034,0,7.354,0.526,9.944,1.578c2.592,1.051,4.608,2.557,6.025,4.529
		s2.247,4.051,2.464,6.214c0.229,2.175,0.345,6.369,0.345,12.606v7.875c0,6.751-0.102,11.256-0.307,13.527
		c-0.191,2.282-1.06,4.433-2.591,6.465c-1.532,2.031-3.613,3.549-6.229,4.564c-2.617,1.016-5.643,1.53-9.089,1.53
		c-4.264,0-7.749-0.645-10.455-1.924c-2.706-1.291-4.646-3.095-5.834-5.425C227.738,65.102,227.15,62.162,227.15,58.613
		L227.15,58.613L227.15,58.613z M242.265,40.939c0,2.378,0.319,3.848,0.983,4.409c0.664,0.562,1.34,0.837,2.042,0.837
		c1.047,0,1.813-0.359,2.298-1.064c0.485-0.717,0.728-2.103,0.728-4.182V30.675c0-2.497-0.229-4.122-0.689-4.899
		c-0.459-0.765-1.226-1.159-2.298-1.159c-0.65,0-1.327,0.299-2.017,0.896c-0.701,0.598-1.047,2.199-1.047,4.816V40.939
		L242.265,40.939z M304.904,32.049H289.79c0-2.641-0.026-4.302-0.089-4.995c-0.064-0.693-0.358-1.267-0.895-1.732
		c-0.536-0.466-1.275-0.705-2.195-0.705c-0.767,0-1.404,0.227-1.902,0.669c-0.498,0.442-0.791,1.016-0.868,1.721
		c-0.076,0.693-0.102,2.104-0.102,4.23v9.034c0.766-1.518,1.901-2.653,3.396-3.418c1.493-0.752,3.344-1.135,5.54-1.135
		c2.77,0,5.208,0.705,7.327,2.103s3.459,3.083,4.034,5.043c0.574,1.959,0.868,4.612,0.868,7.946v4.517
		c0,3.967-0.166,6.919-0.485,8.855c-0.332,1.936-1.2,3.728-2.604,5.377c-1.403,1.637-3.345,2.916-5.796,3.836
		c-2.451,0.908-5.322,1.362-8.578,1.362c-4.071,0-7.403-0.526-9.994-1.577c-2.593-1.052-4.596-2.557-6-4.529
		c-1.404-1.972-2.234-4.051-2.464-6.214c-0.242-2.175-0.357-6.393-0.357-12.643v-7.838c0-6.751,0.102-11.257,0.319-13.539
		c0.203-2.271,1.072-4.421,2.592-6.453c1.53-2.031,3.599-3.561,6.229-4.565c2.63-1.016,5.668-1.529,9.114-1.529
		c4.238,0,7.711,0.645,10.429,1.924c2.719,1.291,4.66,3.095,5.834,5.425C304.316,25.561,304.904,28.5,304.904,32.049L304.904,32.049
		L304.904,32.049z M289.79,49.723c0-2.008-0.23-3.382-0.715-4.135c-0.473-0.741-1.238-1.111-2.312-1.111
		c-1.046,0-1.812,0.346-2.297,1.064c-0.485,0.717-0.728,2.103-0.728,4.182v10.252c0,2.498,0.229,4.135,0.688,4.912
		c0.46,0.764,1.227,1.147,2.298,1.147c0.651,0,1.315-0.299,2.018-0.884c0.701-0.598,1.047-2.199,1.047-4.816V49.723L289.79,49.723z"
		/>
</g>
</svg>
